<svg version="1.0" xmlns="http://www.w3.org/2000/svg" width="666.667" height="666.667" viewBox="0 0 500.000000 500.000000"><path d="M0 250v250h500V250H250V0H0v250zM133.7 15.4c3 .8 8.3 3.6 12.5 6.6 4 2.8 11.8 8.3 17.3 12.1 5.5 3.7 12.5 8.6 15.5 10.7 3 2.1 15.8 11 28.4 19.8 12.6 8.8 24.3 17.7 26.1 19.9 6 7.2 6.5 11.6 6.5 53.1-.1 40.2-.6 45.3-5.5 52.4-8.4 12.1-23.4 13.7-37.5 3.8-12.6-8.7-39.6-27.5-50-34.8-17.5-12.3-20.2-14-21.4-14-.7 0-3.9 1.9-7.1 4.3-3.3 2.4-9.6 6.8-14 9.8-4.4 3.1-15.6 10.9-25 17.4-9.3 6.5-20.5 14.3-24.8 17.3-9.9 6.9-16.6 8.7-24.8 6.7-9.9-2.3-15.5-8.2-18.4-19.3-1.4-5.4-1.5-11.9-1.3-44.5.4-43.8.7-45.7 8.1-53 2.3-2.3 11.4-9.2 20.1-15.2C62.5 51.9 66.5 49.1 79.5 40c6.6-4.6 14.7-10.1 18-12.3 3.3-2.2 7.8-5.4 9.9-7.1 4.5-3.5 12.6-6.5 17.6-6.6 1.9 0 5.8.6 8.7 1.4zm-1.1 146c4.9 1.3 8.7 3.7 34.4 21.6 5.8 4 13.9 9.6 18 12.5 4.1 2.9 12.9 9 19.5 13.5 6.6 4.6 15.3 10.7 19.4 13.4 15.4 10.7 16 13 16.1 61.9 0 44.6-.4 47-8.4 55.1-4.4 4.4-6 5.3-11.2 6.4-4.8 1-7.3 1-11.5 0-5.2-1.1-7.9-2.7-27.4-16.3-9.6-6.7-26.4-18.4-34.5-24-4.1-2.9-10.6-7.3-14.3-10l-6.8-4.7-5.2 3.5c-5.5 3.8-12 8.3-31.2 21.7-6.6 4.6-15.6 10.8-20 13.9-4.4 3-11.1 7.7-14.9 10.4-9.1 6.5-16.1 8.3-24.9 6.5-5.3-1.1-6.9-2-11.3-6.5-8-7.9-8.4-10.8-8.4-55.4 0-50.6-.2-49.9 21.6-65 7.5-5.2 17.7-12.3 22.8-15.9 5.1-3.6 13.3-9.2 18.1-12.5 10.4-7.2 24.4-17 34-23.8 9.7-7 17-8.7 26.1-6.3zm330.2 95.8c13.4 2.9 19.5 20.2 11.1 31.9-1 1.4-6.5 5.7-12.1 9.5-10.7 7.1-30.7 26-34.1 32.1l-1.7 3.1 6.7 2.2c11.8 3.9 21.5 11.6 27.5 22 3.2 5.4 5.8 15.1 5.8 21.3 0 6.7-3.5 16.8-8.3 23.9-8.1 12.1-26.5 21.5-44.3 22.5-15.6 1-30.3-5.9-39.4-18.4-2.5-3.4-4.8-6.2-5.2-6.3-.7 0-6.8 8-6.8 9 0 .3 2 2 4.4 3.7 5.1 3.6 8.9 9.7 10.6 17 1.1 4.7 1 6.1-.9 12-2.8 9.4-12.1 23.9-21.6 34.1-10.5 11.2-16 14.6-26.9 16.9-8.2 1.7-9 1.7-17.3 0-9.9-2.1-14.7-4.9-21.7-12.9-10.2-11.7-16.6-29.5-16.6-46.4 0-14.5 1.4-19.6 6.8-25 5-5 9.9-6.8 19-6.9h6.3l4.5-7.5c7-11.5 15.1-22.4 22.4-29.9 5.9-6.2 25.2-20.1 29.9-21.6 1.3-.4 2.9-3.4 5.1-9.8 7.3-20.9 22.8-41.6 43.3-57.9 24.8-19.6 34.1-22.8 53.5-18.6zm-330.5 50.3c3.3.7 6.6 2 7.5 2.8 1 .8 9.4 6.7 18.7 13.2 9.4 6.5 22.2 15.4 28.5 19.8 6.3 4.4 14.2 9.9 17.5 12.2 29.4 20.4 31.3 22.1 33.9 32.1 2.2 8.5 2.3 70.7.1 79.7-2.6 11-8.2 16.6-19.3 19.3-11.8 2.8-22 .5-33.2-7.4-4.1-3-12-8.5-17.5-12.3-16-11-26-18-34.7-24.2-7.1-5-8.3-5.5-9.7-4.3-1.5 1.2-15.4 11-33.1 23.1-4.1 2.8-13.3 9.2-20.5 14.2-11.1 7.6-14.1 9.3-20.3 10.8-12.4 3-25.1.4-32.1-6.6-7.1-7.1-7.5-9.5-7.9-48.4-.4-36.4.2-42.7 4.3-50 3.4-6 2.7-5.4 35.5-28 4.1-2.8 12-8.3 17.5-12.1 44.7-31.2 47.1-32.8 52-34 6.4-1.6 6-1.6 12.8.1z"/><path d="M109.5 49.1c-8.8 6.2-24.1 16.8-34 23.7-9.9 6.9-23.1 16.1-29.3 20.4l-11.2 8v37.9c0 20.8.2 37.9.5 37.9s3.6-2.2 7.3-4.8c3.7-2.7 23.7-16.7 44.5-31.2 33.2-22.9 38.2-26.1 40-25.2 1.2.5 21.3 14.3 44.7 30.6l42.5 29.6.3-37.2c.1-20.5 0-37.8-.2-38.4-.4-.9-87.8-62.4-88.8-62.4-.2 0-7.5 5-16.3 11.1zM79.8 216.2L35 247.4v37.8c0 20.8.3 37.8.8 37.8.4-.1 17.6-11.8 38.2-26.1 20.6-14.4 40.7-28.4 44.7-31.1l7.2-5 44 30.6c24.1 16.8 44.2 30.6 44.5 30.6.3 0 .6-17 .6-37.9v-37.8l-43.7-30.4c-24.1-16.7-44.4-30.5-45.3-30.6-.8-.1-21.6 13.8-46.2 30.9zm85.7 13.5l37 25.8.3 20.3c.1 11.1 0 20.2-.2 20.2-.4 0-9.4-6.2-53.4-36.8-13.9-9.7-23.8-16-24.5-15.5-.7.4-4.1 2.8-7.7 5.3-3.6 2.6-18.4 12.9-33 23-14.6 10.1-28.6 19.9-31.3 21.8l-4.7 3.4v-40.9l38.8-27c27.7-19.3 39.1-26.8 40.2-26.2.8.5 18.2 12.4 38.5 26.6zM435.9 280.8c-29 19.5-46.8 41.1-53.4 64.7-2.9 10.6-3.1 10.9-10.3 14.4-22.8 11.3-37.9 27.2-51.9 54.8-3.4 6.7-7.4 16.1-8.9 20.8-1.6 4.7-3.1 7.9-3.5 7.3-.3-.7-1.2-4.2-1.9-7.8-1.6-8.4-3.3-11.5-6.8-12.8-5-1.7-7.6.4-8 6.3-1.3 17.7 7.8 39.2 19 45.1 4 2.1 14.1 1.8 18.7-.5 7.7-4 20.4-19 27-31.8 2.8-5.6 2.7-7.9-.8-11.4-5.4-5.3-9.3-3.7-15.8 6.4-4.3 6.9-10.9 14.7-12.4 14.7-.4 0 0-3.5.8-7.8 5.4-29 23.3-57.7 44.8-72.2 10.6-7.1 9.9-6.9 9.1-2.1-.4 2.5 0 6.7.9 10.6 4.9 21.4 20.1 31.1 39.5 25.2 7.6-2.3 17.3-8.7 20.6-13.7 3.3-4.9 4.3-13.7 2.4-19.6-1.7-5-8.3-12-14.5-15.2-4.4-2.3-6.5-2.7-18-3.2l-13-.5v-5.2c.1-4.2 1.1-7.1 5.3-15.5 2.8-5.7 7.4-13.3 10.2-17 7.2-9.6 21.7-22.8 33.4-30.6 5.6-3.7 10.3-6.8 10.6-7 1.4-1-3.3-2.2-8.5-2.2-5.6 0-6.5.4-14.6 5.8zm-21.6 80.6c9.7 3.5 15.2 11.3 14.5 20.3-1.1 12.5-13 19-22.1 12-6.5-4.9-12.6-21.7-10.7-29.7.9-3.9 10.7-5.3 18.3-2.6zM97 350.8c-15.7 11-35.9 25-45 31.3l-16.5 11.5-.3 34.7L35 463h5.3c5.9 0 .1 3.7 63.8-40.7l21.7-15 40.1 27.8c38 26.5 40.3 27.9 44.6 27.9h4.5v-35.3l-.1-35.2-44-30.5c-24.2-16.8-44.3-30.6-44.7-30.8-.4-.1-13.6 8.7-29.2 19.6zM358.6 52.3c-5.3 3-7.6 7.7-7.6 15.2 0 4.8-9.7 52.2-12.6 61.8-.3 1.1-7.8 5.4-19.5 11.2L300 150v46h46.5l14.2-14.2 14.3-14.3 14.3 14.3 14.2 14.2H450v-46l-18.9-9.5c-11.7-5.8-19.2-10.1-19.5-11.2-2.9-9.6-12.6-57-12.6-61.8 0-7.5-2.3-12.2-7.6-15.2-4.6-2.7-8.4-2.9-13-.7-3.1 1.5-3.7 1.5-6.8 0-4.6-2.2-8.4-2-13 .7z"/></svg>