<?xml version="1.0" standalone="no"?>
<!DOCTYPE svg PUBLIC "-//W3C//DTD SVG 20010904//EN"
 "http://www.w3.org/TR/2001/REC-SVG-20010904/DTD/svg10.dtd">
<svg version="1.0" xmlns="http://www.w3.org/2000/svg"
 width="500.000000pt" height="500.000000pt" viewBox="0 0 500.000000 500.000000"
 preserveAspectRatio="xMidYMid meet">
<metadata>
Created by potrace 1.11, written by Peter Selinger 2001-2013
</metadata>
<g transform="translate(0.000000,500.000000) scale(0.100000,-0.100000)"
fill="#000000" stroke="none">
<path d="M0 2500 l0 -2500 2500 0 2500 0 0 1250 0 1250 -1250 0 -1250 0 0
1250 0 1250 -1250 0 -1250 0 0 -2500z m1617 1408 l353 -353 0 -377 c0 -295 -3
-378 -12 -378 -7 0 -169 156 -360 347 l-348 348 -348 -348 c-191 -191 -353
-347 -360 -347 -9 0 -12 83 -12 377 l0 378 352 352 c194 194 360 353 368 353
8 0 174 -159 367 -352z m25 -1115 l378 -378 0 -318 c0 -282 -2 -318 -16 -324
-12 -4 -118 96 -385 363 l-369 369 -369 -369 c-267 -267 -373 -367 -385 -363
-14 6 -16 42 -16 324 l0 318 377 377 c208 208 385 378 393 378 8 0 185 -170
392 -377z m-29 -960 l357 -358 0 -363 c0 -313 -2 -363 -15 -368 -10 -4 -124
102 -356 330 -188 185 -345 336 -349 336 -4 0 -161 -151 -349 -336 -232 -228
-346 -334 -356 -330 -13 5 -15 55 -15 368 l0 363 353 356 c193 196 357 357
362 357 6 1 171 -159 368 -355z m2860 191 c60 -10 48 -33 -60 -109 -114 -80
-233 -195 -290 -280 -72 -108 -126 -231 -116 -262 3 -9 30 -13 88 -13 116 0
177 -21 241 -85 140 -139 70 -320 -149 -387 -185 -56 -332 55 -354 268 l-6 52
-36 -21 c-103 -62 -245 -234 -311 -381 -35 -76 -84 -240 -78 -258 3 -7 31 26
62 74 65 97 94 116 141 92 78 -40 72 -91 -28 -239 -138 -203 -287 -251 -399
-127 -70 77 -105 178 -110 315 -3 68 0 80 16 93 25 17 65 18 88 0 21 -16 48
-76 48 -108 0 -35 15 -11 50 77 108 272 276 468 496 578 49 25 51 28 69 92 54
202 201 394 417 548 116 82 145 93 221 81z"/>
<path d="M892 3887 l-352 -352 0 -358 c0 -196 3 -357 7 -357 5 0 164 156 355
347 l348 348 348 -348 c191 -191 350 -347 355 -347 4 0 7 161 7 358 l0 357
-353 353 c-193 193 -354 352 -357 352 -3 0 -164 -159 -358 -353z"/>
<path d="M873 2784 l-373 -374 0 -312 0 -313 375 375 375 375 375 -375 375
-375 0 313 0 312 -376 375 c-207 206 -377 374 -377 374 -1 -1 -170 -169 -374
-375z m694 -106 l313 -313 0 -150 0 -150 -315 315 -315 315 -315 -315 -315
-315 0 150 0 150 312 312 c172 172 315 313 318 313 3 0 146 -141 317 -312z"/>
<path d="M938 2653 l-308 -307 0 -121 0 -120 303 303 c166 166 309 302 317
302 8 0 151 -136 317 -302 l303 -303 0 120 0 121 -305 304 c-168 168 -309 306
-313 307 -4 2 -145 -135 -314 -304z"/>
<path d="M892 1817 l-352 -352 0 -353 c0 -274 3 -352 12 -352 7 0 167 154 355
342 l343 343 343 -343 c188 -188 348 -342 355 -342 9 0 12 78 12 353 l0 352
-353 353 c-193 193 -354 352 -357 352 -3 0 -164 -159 -358 -353z"/>
<path d="M4291 1950 c-103 -69 -233 -187 -295 -269 -66 -86 -97 -145 -136
-260 l-36 -106 -75 -40 c-106 -58 -156 -95 -221 -162 -101 -107 -199 -273
-268 -457 l-38 -99 -13 74 c-10 56 -19 81 -40 102 -32 31 -51 34 -75 10 -14
-14 -16 -30 -11 -98 11 -150 64 -267 146 -322 44 -30 132 -32 176 -5 72 44
191 193 231 288 15 35 14 39 -4 63 -10 14 -31 30 -45 35 -33 12 -53 -5 -112
-94 -23 -36 -54 -76 -69 -89 -25 -24 -26 -24 -26 -4 0 49 53 221 94 309 88
186 202 314 362 407 8 4 11 -10 11 -46 -2 -114 64 -236 148 -277 120 -58 339
24 384 143 17 44 13 114 -8 155 -47 90 -128 132 -268 138 -52 2 -99 6 -104 9
-27 18 12 131 88 254 60 97 202 239 320 321 100 69 103 80 21 80 -41 0 -58 -8
-137 -60z m-140 -693 c82 -43 115 -123 84 -203 -36 -95 -138 -112 -203 -34
-47 55 -84 198 -62 239 16 31 120 30 181 -2z"/>
<path d="M3998 1263 c-23 -6 -24 -81 -2 -145 19 -56 75 -123 109 -132 34 -9
87 17 108 53 23 40 22 106 -3 147 -36 58 -140 96 -212 77z"/>
<path d="M3586 4477 c-53 -30 -76 -77 -76 -152 0 -48 -97 -522 -126 -618 -3
-11 -78 -54 -195 -112 l-189 -95 0 -230 0 -230 232 0 233 0 142 142 143 143
143 -143 142 -142 233 0 232 0 0 230 0 230 -189 95 c-117 58 -192 101 -195
112 -29 96 -126 570 -126 618 0 75 -23 122 -76 152 -46 27 -84 29 -130 7 -31
-15 -37 -15 -68 0 -46 22 -84 20 -130 -7z"/>
</g>
</svg>
