<?xml version="1.0" standalone="no"?>
<!DOCTYPE svg PUBLIC "-//W3C//DTD SVG 20010904//EN"
 "http://www.w3.org/TR/2001/REC-SVG-20010904/DTD/svg10.dtd">
<svg version="1.0" xmlns="http://www.w3.org/2000/svg"
 width="512.000000pt" height="512.000000pt" viewBox="0 0 512.000000 512.000000"
 preserveAspectRatio="xMidYMid meet">
<metadata>
Created by potrace 1.14, written by Peter Selinger 2001-2017
</metadata>
<g transform="translate(0.000000,512.000000) scale(0.100000,-0.100000)"
fill="#000000" stroke="none">
<path d="M2598 4715 c-2 -2 -25 -5 -53 -8 -60 -5 -135 -27 -135 -39 0 -4 -7
-8 -15 -8 -8 0 -15 -5 -15 -11 0 -5 -3 -8 -7 -6 -5 3 -21 -11 -38 -30 -16 -19
-39 -45 -50 -56 -11 -12 -19 -25 -18 -29 2 -5 -1 -8 -6 -8 -5 0 -14 -13 -21
-30 -7 -16 -17 -30 -22 -30 -5 0 -7 -4 -4 -9 3 -4 -3 -19 -14 -31 -11 -12 -17
-26 -14 -31 2 -4 0 -16 -5 -26 -20 -38 -30 -82 -19 -89 7 -4 6 -9 -3 -14 -10
-7 -9 -15 2 -42 16 -40 35 -60 72 -76 37 -16 80 -16 74 1 -2 6 -10 11 -16 9
-6 -1 -11 2 -11 8 0 6 -6 10 -13 10 -32 0 -50 80 -34 155 18 89 64 152 134
186 58 28 247 35 306 12 20 -8 37 -19 37 -24 0 -5 6 -9 13 -9 6 0 25 -12 41
-26 25 -22 29 -33 31 -85 1 -33 -2 -62 -6 -65 -4 -2 -6 -13 -4 -24 2 -11 0
-20 -4 -20 -5 0 -12 -16 -15 -35 -4 -19 -11 -35 -16 -35 -4 0 -7 -8 -6 -17 2
-10 0 -20 -4 -23 -3 -3 -26 -47 -50 -97 -24 -51 -46 -93 -49 -94 -4 0 -78 -2
-166 -5 -215 -6 -245 -8 -245 -16 0 -5 -10 -6 -22 -4 -13 2 -36 -1 -53 -6 -16
-5 -39 -11 -50 -12 -11 -2 -27 -6 -35 -10 -10 -4 -23 6 -40 31 -14 21 -30 42
-37 46 -7 4 -13 15 -13 22 0 8 -5 15 -12 15 -6 0 -9 3 -5 6 3 4 -12 24 -33 46
-22 21 -40 43 -40 48 0 6 -4 10 -8 10 -5 0 -18 8 -30 18 -54 46 -63 52 -72 52
-6 0 -10 3 -10 8 0 4 -21 20 -48 37 -26 16 -49 32 -52 35 -17 18 -169 84 -187
81 -7 -1 -13 3 -13 8 0 6 -11 6 -30 0 -16 -6 -30 -15 -30 -19 0 -5 -8 -11 -17
-14 -26 -8 -98 -76 -120 -112 l-18 -31 -100 34 c-55 19 -107 36 -115 37 -8 2
-28 8 -43 15 -15 6 -40 14 -55 17 -15 4 -31 9 -37 13 -11 6 -16 7 -69 17 -28
5 -37 4 -32 -4 4 -7 3 -12 -1 -12 -11 0 -11 -80 0 -97 4 -6 3 -14 -3 -18 -6
-4 -7 -11 -3 -17 7 -12 10 -49 17 -178 3 -41 5 -75 6 -75 2 0 6 -24 14 -75 12
-85 30 -158 48 -197 6 -11 7 -26 4 -32 -4 -6 -2 -11 5 -11 6 0 9 -8 6 -20 -3
-11 -1 -20 4 -20 5 0 9 -6 9 -13 0 -7 12 -38 27 -68 15 -30 26 -57 25 -61 -1
-5 3 -8 9 -8 5 0 7 -4 4 -10 -3 -5 -3 -10 2 -10 4 0 14 -15 22 -32 8 -18 19
-36 24 -40 14 -8 18 -38 6 -38 -5 0 -9 -5 -9 -10 0 -6 -11 -23 -25 -38 -14
-15 -25 -30 -25 -33 0 -7 -62 -104 -80 -126 -6 -7 -10 -19 -10 -28 0 -8 -3
-15 -8 -15 -10 0 -67 -127 -64 -142 1 -5 -2 -8 -8 -8 -6 0 -9 -3 -8 -7 2 -5
-6 -28 -16 -53 -11 -25 -21 -52 -22 -60 -2 -8 -8 -26 -15 -40 -6 -14 -15 -34
-19 -45 -4 -11 -13 -33 -19 -48 -6 -16 -9 -33 -6 -38 4 -5 2 -9 -2 -9 -8 0
-54 -134 -52 -150 0 -3 -4 -17 -10 -31 -5 -15 -13 -47 -16 -70 -4 -24 -8 -48
-9 -54 -1 -5 -5 -16 -9 -22 -5 -8 -3 -13 5 -13 10 0 10 -2 1 -8 -7 -4 -12 -16
-12 -27 0 -26 -10 -258 -12 -265 -1 -3 0 -9 1 -15 3 -13 9 -121 12 -217 1 -43
7 -78 11 -78 5 0 4 -6 -2 -13 -6 -8 -8 -17 -5 -20 4 -3 8 -32 10 -65 l4 -58
-60 -13 c-33 -7 -60 -18 -60 -23 0 -6 -7 -8 -15 -4 -8 3 -15 1 -15 -4 0 -6 -3
-9 -7 -8 -5 1 -21 -5 -38 -12 -16 -7 -33 -14 -37 -15 -5 -2 -9 -4 -10 -5 -3
-2 -36 -8 -65 -12 -7 -1 -20 -9 -29 -19 -14 -16 -14 -18 5 -24 12 -3 21 -11
21 -16 0 -5 5 -9 10 -9 6 0 17 -6 26 -12 98 -84 94 -81 124 -94 29 -14 154
-50 191 -56 14 -3 31 1 37 9 7 7 10 13 6 13 -4 0 0 8 9 18 10 10 15 21 12 24
-3 3 8 19 25 36 26 28 33 30 50 20 11 -7 20 -16 20 -21 0 -4 4 -6 9 -3 5 3 26
-6 47 -20 21 -15 57 -28 79 -30 41 -3 59 -7 85 -17 24 -9 116 -29 138 -30 6 0
12 -3 12 -6 0 -3 23 -7 52 -9 28 -2 56 -6 61 -9 5 -3 28 -7 51 -9 22 -1 57 -6
76 -9 33 -7 66 -11 135 -20 106 -13 154 -17 187 -19 21 0 38 -3 38 -6 0 -3 15
-5 33 -6 60 -1 169 -12 174 -18 3 -3 14 -1 24 5 11 5 19 6 19 2 0 -7 67 -13
207 -17 29 0 53 -3 53 -6 0 -3 11 -5 25 -5 14 0 25 4 25 8 0 5 6 5 12 1 21
-13 78 -13 71 0 -4 6 1 5 10 -3 9 -7 23 -11 31 -8 8 3 17 1 20 -6 3 -8 5 -9 5
-1 1 8 12 9 36 4 24 -5 35 -4 35 4 0 7 4 6 9 -3 7 -11 9 -11 14 0 3 9 6 9 6 2
1 -8 10 -9 29 -3 16 4 35 4 43 -1 8 -4 21 -4 28 0 7 5 22 6 34 3 15 -4 18 -2
12 9 -7 11 -6 12 6 4 8 -6 32 -9 54 -8 22 2 69 5 105 8 36 2 88 6 115 9 28 3
77 8 110 11 33 3 74 8 90 10 17 2 62 7 100 11 39 3 79 11 90 17 13 7 20 7 23
-2 2 -6 9 -8 15 -4 7 4 20 8 30 9 9 1 18 3 20 4 1 1 25 4 52 6 65 5 88 9 100
16 6 3 27 5 48 4 20 0 37 3 37 7 0 5 8 7 18 6 9 -1 19 0 22 1 7 3 44 8 109 15
29 3 58 8 64 12 10 6 62 13 115 16 12 0 22 4 22 7 0 3 10 6 23 7 36 2 110 15
135 24 15 6 22 5 22 -4 0 -8 3 -8 9 2 5 8 16 11 25 8 8 -3 18 -2 21 2 8 14 55
20 55 7 0 -8 2 -8 8 1 7 10 91 28 102 21 8 -5 73 44 94 71 11 13 21 33 21 45
1 11 7 22 14 24 6 2 9 7 6 12 -10 17 21 16 38 -2 9 -10 14 -18 11 -18 -4 0 0
-7 7 -16 7 -9 14 -23 15 -31 3 -19 7 -23 30 -27 11 -2 24 -5 29 -6 6 -1 13 -1
18 0 4 1 12 4 17 5 6 1 11 3 13 5 1 1 10 3 20 5 10 2 26 7 35 11 9 4 20 8 23
8 3 1 36 14 72 31 43 19 67 35 67 46 0 16 -38 39 -65 39 -8 0 -15 4 -15 9 0 8
-56 33 -64 28 -1 -1 -10 4 -18 11 -17 14 -56 22 -128 27 -25 2 -49 4 -53 4 -4
1 -3 10 3 21 6 11 8 20 5 20 -3 0 1 13 10 30 8 16 15 33 15 37 -1 9 7 55 16
93 8 32 12 342 5 355 -3 6 -6 26 -7 45 -1 19 -3 35 -4 35 -2 0 -4 14 -5 30 -2
17 -4 30 -5 30 -1 0 -4 11 -5 25 -6 38 -10 54 -18 68 -5 6 -6 12 -3 12 3 0
-12 49 -33 109 -22 60 -36 112 -33 115 3 3 0 6 -6 6 -7 0 -11 3 -10 8 1 4 -3
17 -10 28 -6 12 -8 24 -5 28 3 3 1 6 -6 6 -7 0 -9 5 -6 10 3 6 1 10 -5 10 -7
0 -10 7 -6 15 3 8 2 15 -2 15 -5 0 -14 16 -21 35 -7 19 -17 35 -23 35 -6 0 -9
3 -5 6 5 6 -90 203 -103 214 -7 6 -23 45 -18 45 2 0 -7 11 -19 25 -13 13 -23
28 -23 33 0 4 -11 23 -25 41 -14 18 -25 38 -25 44 0 7 -4 12 -8 12 -4 0 -15
12 -24 28 -9 15 -28 39 -42 54 -14 15 -26 33 -26 39 0 7 -2 10 -5 8 -2 -3 -39
28 -82 68 -107 102 -109 103 -116 103 -4 0 -21 12 -38 28 -16 15 -43 34 -59
43 -16 9 -28 18 -25 21 2 2 -12 13 -33 23 -20 11 -45 28 -54 39 -10 10 -18 15
-18 10 0 -5 -4 -4 -8 1 -4 6 -16 15 -27 21 -19 11 -20 22 -20 200 -1 175 -8
275 -23 299 -4 6 -7 16 -8 23 -2 8 -6 21 -10 30 -4 9 -8 19 -9 22 -4 15 -59
116 -66 120 -4 3 -11 18 -14 33 -4 15 -11 27 -16 27 -5 0 -9 6 -9 13 0 6 -14
20 -30 29 -17 9 -30 13 -30 7 0 -6 -4 -7 -10 -4 -5 3 -10 1 -10 -6 0 -7 -3 -9
-7 -6 -3 4 -12 2 -20 -4 -7 -6 -13 -8 -13 -3 0 5 -4 3 -9 -4 -4 -7 -18 -14
-29 -15 -12 -1 -22 -4 -22 -8 0 -4 -9 -9 -20 -12 -10 -3 -19 -2 -18 2 2 19 -4
32 -24 50 -16 16 -25 18 -35 9 -7 -6 -16 -8 -19 -5 -7 6 -10 4 -69 -46 -22
-19 -60 -47 -85 -62 -25 -16 -62 -46 -83 -67 -35 -35 -67 -52 -52 -27 12 18
31 113 30 147 0 17 2 32 5 32 3 0 5 18 5 40 0 22 -2 40 -5 40 -3 0 -5 11 -5
25 0 14 3 25 7 25 3 0 1 16 -5 35 -7 23 -20 39 -39 47 -15 7 -28 15 -28 18 0
3 -12 7 -27 8 -16 1 -44 4 -63 7 -19 3 -69 8 -110 10 -41 3 -87 7 -102 9 -15
2 -29 2 -30 1z"/>
</g>
</svg>
